<?xml version="1.0" standalone="no"?>
<!DOCTYPE svg PUBLIC "-//W3C//DTD SVG 20010904//EN"
 "http://www.w3.org/TR/2001/REC-SVG-20010904/DTD/svg10.dtd">
<svg version="1.0" xmlns="http://www.w3.org/2000/svg"
 width="500.000000pt" height="500.000000pt" viewBox="0 0 500.000000 500.000000"
 preserveAspectRatio="xMidYMid meet">
<metadata>
Created by potrace 1.11, written by Peter Selinger 2001-2013
</metadata>
<g transform="translate(0.000000,500.000000) scale(0.100000,-0.100000)"
fill="#000000" stroke="none">
<path d="M1249 3406 c-2 -2 -49 -6 -105 -10 -112 -6 -268 -26 -449 -58 -66
-11 -133 -22 -150 -25 -16 -2 -113 -21 -215 -42 l-185 -38 0 -202 0 -201 30
-9 c50 -13 113 -58 140 -99 36 -54 61 -135 80 -258 38 -244 46 -285 70 -360
13 -44 40 -103 60 -131 95 -141 346 -271 600 -312 58 -10 325 -8 342 2 4 2 31
7 60 11 66 8 242 65 320 104 171 87 257 192 362 442 29 69 67 158 84 198 44
107 81 157 131 181 52 26 89 26 142 2 62 -28 95 -84 185 -308 130 -325 206
-422 415 -523 212 -102 519 -145 742 -103 198 37 377 121 487 228 104 100 147
209 185 470 33 228 44 271 91 345 34 54 70 83 130 103 l44 15 3 201 2 200 -37
10 c-21 5 -110 24 -198 41 -88 17 -191 37 -230 45 -94 18 -324 52 -410 60 -38
4 -81 9 -95 11 -14 3 -124 6 -245 8 -314 6 -444 -12 -750 -99 -82 -24 -172
-46 -200 -50 -27 -4 -59 -9 -70 -11 -33 -7 -211 -6 -252 1 -74 12 -139 27
-243 57 -182 52 -250 67 -425 93 -43 7 -440 16 -446 11z"/>
</g>
</svg>
